HIERARCHY
ROOT hip
{
	OFFSET 0.000000 0.000000 0.000000 
	CHANNELS 6 Xposition Yposition Zposition Xrotation Zrotation Yrotation
	JOINT abdomen
	{
		OFFSET 0.000000 3.402643 0.000000 
		CHANNELS 3 Xrotation Zrotation Yrotation
		JOINT chest
		{
			OFFSET 0.000000 8.438565 -0.680529 
			CHANNELS 3 Xrotation Zrotation Yrotation
			JOINT neck
			{
				OFFSET 0.000000 10.207942 -0.272212 
				CHANNELS 3 Xrotation Zrotation Yrotation
				JOINT head
				{
					OFFSET 0.000000 3.130431 0.000000 
					CHANNELS 3 Xrotation Zrotation Yrotation
					End Site
					{
						OFFSET 0.000000 3.130435 0.000000 
					}
				}
			}
			JOINT lCollar
			{
				OFFSET 3.470700 6.669187 -0.816635 
				CHANNELS 3 Yrotation Zrotation Xrotation
				JOINT lShldr
				{
					OFFSET 3.198488 0.000000 0.000000 
					CHANNELS 3 Zrotation Yrotation Xrotation
					JOINT lForeArm
					{
						OFFSET 10.139888 0.000000 0.000000 
						CHANNELS 3 Yrotation Zrotation Xrotation
						JOINT lHand
						{
							OFFSET 8.370511 0.000000 0.000000 
							CHANNELS 3 Zrotation Yrotation Xrotation
							End Site
							{
								OFFSET 4.083176 0.000000 0.000000 
							}
						}
					}
				}
			}
			JOINT rCollar
			{
				OFFSET -3.470700 6.669187 -0.816635 
				CHANNELS 3 Yrotation Zrotation Xrotation
				JOINT rShldr
				{
					OFFSET -3.198488 0.000000 0.000000 
					CHANNELS 3 Zrotation Yrotation Xrotation
					JOINT rForeArm
					{
						OFFSET -10.139888 0.000000 0.000000 
						CHANNELS 3 Yrotation Zrotation Xrotation
						JOINT rHand
						{
							OFFSET -8.370511 0.000000 0.000000 
							CHANNELS 3 Zrotation Yrotation Xrotation
							End Site
							{
								OFFSET -4.083176 0.000000 0.000000 
							}
						}
					}
				}
			}
		}
	}
	JOINT lThigh
	{
		OFFSET 5.308129 -1.633274 1.361059 
		CHANNELS 3 Xrotation Zrotation Yrotation
		JOINT lShin
		{
			OFFSET -2.041588 -20.007561 0.000000 
			CHANNELS 3 Xrotation Zrotation Yrotation
			JOINT lFoot
			{
				OFFSET 0.000000 -19.190928 -1.224953 
				CHANNELS 3 Xrotation Yrotation Zrotation
				End Site
				{
					OFFSET 0.000000 -2.449906 4.627600 
				}
			}
		}
	}
	JOINT rThigh
	{
		OFFSET -5.308129 -1.633274 1.361059 
		CHANNELS 3 Xrotation Zrotation Yrotation
		JOINT rShin
		{
			OFFSET 2.041588 -20.007561 0.000000 
			CHANNELS 3 Xrotation Zrotation Yrotation
			JOINT rFoot
			{
				OFFSET 0.000000 -19.190928 -1.224953 
				CHANNELS 3 Xrotation Yrotation Zrotation
				End Site
				{
					OFFSET 0.000000 -2.449906 4.627600 
				}
			}
		}
	}
}
MOTION
Frames: 13
Frame Time: 0.016667
73.947090 55.801666 -46.363609 -1.240234 -2.138672 -77.265991 0.000000 0.000000 0.000000 6.181641 3.623047 1.631476 8.291017 11.250001 73.986282 9.804688 -6.513672 -47.939449 -2.490235 -6.738282 6.025390 -60.048832 -12.587891 33.769535 110.869164 -169.658203 -5.642778 -6.787110 -18.447268 149.658203 7.998046 17.763670 5.000000 44.775391 25.673828 51.962898 63.046875 7.177735 21.406250 -6.621094 -3.408203 -32.636719 -0.078387 10.427687 5.876635 18.767178 -2.711854 78.535164 -24.357374 -59.492458 -33.485920 -2.890787 -5.507399 -4.628632 11.766141 -0.528273 67.913551 26.058319 -97.176476 33.080734 
74.128624 55.771126 -46.165970 -0.703125 -2.207031 -77.558968 0.000000 0.000000 0.000000 6.181642 3.955079 1.436221 8.339844 11.455077 74.541016 9.462891 -6.582031 -48.565571 -2.363281 -6.660156 6.065585 -59.951172 -12.734376 33.779293 111.005875 -169.804688 -7.254130 -7.167968 -18.378906 150.573090 7.822266 18.076172 4.980468 44.658203 26.210939 52.099609 63.017578 7.304688 20.350319 -6.806641 -3.476563 -31.542971 -1.093804 10.626261 5.657506 20.593315 -2.477094 78.907906 -25.652822 -58.901592 -34.808842 -3.297375 -5.393680 -4.712206 11.727147 -0.169429 68.269852 24.235205 -96.869972 31.078444 
74.299240 55.749134 -45.963421 -0.419922 -2.255860 -77.968750 0.000000 0.000000 0.000000 6.269530 4.013672 1.396484 8.320313 11.630860 75.080093 9.482422 -6.542969 -49.257809 -3.144531 -6.435547 6.132812 -60.068359 -12.236329 33.035042 -68.984375 -9.892579 171.406250 -7.392578 -18.056641 151.188385 7.587890 18.437500 5.058594 44.550781 26.875002 52.187500 62.958984 7.460937 19.316406 -7.128906 -3.750000 -30.342436 -1.640205 10.599026 5.516233 21.736040 -2.381308 79.463783 -26.577097 -58.543697 -35.673450 -3.662717 -5.576768 -4.902651 11.776398 0.231049 68.941643 23.073280 -96.629219 29.724209 
74.469856 55.727001 -45.760883 -0.136719 -2.314453 -78.398438 0.000000 0.000000 0.000000 6.347657 4.082031 1.338586 8.300781 11.796875 75.605469 9.511719 -6.494141 -49.962044 -3.945313 -6.230469 6.201171 -60.185551 -11.748047 32.285156 -68.974609 -9.560546 170.068359 -7.607421 -17.724609 151.793900 7.373047 18.789063 5.153105 44.453125 27.529297 52.279903 62.929688 7.636718 18.260420 -7.460937 -4.023438 -29.151077 -2.206909 10.581643 5.363776 22.908541 -2.337248 80.019943 -27.491478 -58.212486 -36.530422 -4.010202 -5.726350 -5.121015 11.835795 0.605758 69.622765 21.618532 -96.448151 28.074018 
74.630081 55.725040 -45.556091 0.019531 -2.255859 -78.984375 0.000000 0.000000 0.000000 6.396485 4.033204 1.309281 8.125000 11.826172 76.252007 9.863281 -6.035157 -50.879932 -4.169922 -6.162109 6.260814 -60.136723 -11.669923 31.806637 -68.935547 -9.394530 168.564453 -7.792969 -17.275389 152.412109 7.304688 18.710938 5.231242 44.794922 28.251953 52.324223 62.792969 7.822267 17.246092 -8.105469 -4.238281 -28.008535 -2.528718 10.484475 5.312274 23.464891 -2.373672 80.660217 -27.989611 -58.087547 -36.943306 -4.303747 -6.029924 -5.351179 11.707776 1.079879 70.461075 20.448793 -96.167648 26.607597 
74.790314 55.723225 -45.351307 0.195313 -2.207030 -79.570694 0.000000 0.000000 0.000000 6.455079 3.994141 1.289743 7.978516 11.855469 76.904297 10.224608 -5.576171 -51.796879 -4.384766 -6.093750 6.309630 -60.107422 -11.591798 31.326160 -68.876953 -9.199219 167.062103 -7.978515 -16.806643 153.014755 7.226563 18.662111 5.299610 45.146481 28.964844 52.382813 62.656250 8.017579 16.240234 -8.759767 -4.443359 -26.875006 -2.840564 10.393563 5.222355 24.031666 -2.503958 81.378372 -28.586494 -58.022087 -37.441132 -4.595080 -6.339946 -5.638562 11.601137 1.543970 71.337921 19.395880 -95.890587 25.280985 
74.934189 55.711739 -45.152271 0.322266 -2.197265 -80.166016 0.000000 0.000000 0.000000 6.503905 3.945313 1.259766 7.919922 11.855470 77.560600 10.615235 -5.078125 -52.891491 -4.462891 -5.869141 6.358420 -60.195313 -11.669923 30.974586 -68.779297 -9.042969 165.450760 -8.369141 -16.289064 153.710938 7.333984 18.476563 5.341796 45.722656 29.697266 52.636715 62.558598 8.173829 15.066971 -9.785156 -4.902344 -25.537947 -3.123481 10.275772 5.201590 24.587866 -2.575506 81.979584 -29.047777 -57.845165 -37.795311 -4.773705 -6.686433 -6.013006 11.569703 2.069084 72.297691 17.611506 -96.111275 23.223864 
75.078163 55.700249 -44.953083 0.439453 -2.177734 -80.742188 0.000000 0.000000 0.000000 6.542968 3.896484 1.201172 7.871093 11.865234 78.232422 10.986327 -4.560547 -53.964844 -4.521484 -5.634766 6.416122 -60.273434 -11.738281 30.613249 -68.681633 -8.896484 163.839401 -8.750000 -15.771484 154.391876 7.431641 18.291018 5.358264 46.318359 30.419924 52.900391 62.470699 8.339844 13.925780 -10.830078 -5.332031 -24.200121 -3.387164 10.188815 5.163305 25.164143 -2.674796 82.574226 -29.552170 -57.691589 -38.204002 -4.960363 -7.020392 -6.336888 11.561078 2.611328 73.211922 16.119793 -96.289139 21.441473 
75.182533 55.688625 -44.774353 0.498047 -2.246091 -81.182037 0.000000 0.000000 0.000000 6.630858 3.818360 1.044922 7.890625 11.826173 78.820366 11.298827 -4.179688 -55.078121 -4.501953 -5.576171 6.503907 -60.166016 -11.865234 30.195316 -68.623047 -8.662109 162.255859 -8.798828 -14.980468 155.175781 7.451172 18.037109 5.436430 47.011719 31.347654 53.212891 62.421879 8.486329 12.576684 -11.582031 -5.820313 -22.149427 -3.514066 10.013433 5.095439 25.554920 -2.754426 83.153671 -29.973045 -57.598690 -38.534630 -4.890080 -7.367775 -6.864863 11.627578 3.153901 74.138390 13.588060 -97.477112 18.684807 
75.286880 55.676998 -44.595623 0.537109 -2.314453 -81.601563 0.000000 0.000000 0.000000 6.718750 3.740235 0.899075 7.929688 11.796876 79.423828 11.601563 -3.808594 -56.211887 -4.482422 -5.507813 6.601562 -60.078125 -11.992188 29.785158 -68.574219 -8.437500 160.675262 -8.837891 -14.169923 155.966797 7.470703 17.812500 5.517578 47.705082 32.265625 53.550133 62.373047 8.623047 11.248536 -12.353516 -6.298828 -20.108494 -3.640046 9.815328 5.017205 25.994543 -2.787539 83.692314 -30.350447 -57.550827 -38.867081 -4.803191 -7.730711 -7.384490 11.698399 3.693530 75.095520 11.793005 -98.689468 16.663198 
75.338852 55.672798 -44.454845 0.498047 -2.480465 -81.914490 0.000000 0.000000 0.000000 6.816407 3.613281 0.830693 8.027344 11.718750 79.814453 11.748047 -3.378906 -57.158207 -4.531250 -5.634766 6.689563 -59.824219 -12.119141 29.208982 -68.476563 -8.164063 159.239670 -8.496094 -13.017578 156.784912 7.392578 17.753906 5.615235 48.154297 33.369141 53.940918 62.451172 8.828125 9.568814 -13.164063 -6.845704 -17.500000 -3.495330 9.625112 4.964036 26.111588 -2.833261 84.077576 -30.547297 -57.471508 -38.970829 -4.343917 -8.022385 -8.002180 11.786161 4.221113 76.004196 11.177441 -100.547623 15.835303 
75.390961 55.668594 -44.314075 0.449219 -2.646484 -82.226563 0.000000 0.000000 0.000000 6.914064 3.486328 0.772078 8.124999 11.650391 80.205078 11.865233 -2.949219 -58.134766 -4.580078 -5.781329 6.778231 -59.560547 -12.236327 28.632811 -68.369141 -7.910156 157.792969 -8.124999 -11.865233 157.624954 7.304688 17.685547 5.729454 48.603512 34.472656 54.345703 62.539063 9.033204 7.879326 -13.994140 -7.373047 -14.893830 -3.358336 9.409822 4.918825 26.238535 -2.862556 84.535690 -30.779810 -57.462517 -39.176834 -3.895014 -8.286396 -8.631670 11.892456 4.721175 76.883347 10.819621 -102.418510 15.239035 
75.389839 55.663692 -44.218971 0.312500 -2.656250 -82.422325 0.000000 0.000000 0.000000 6.787108 3.310547 0.791016 8.154297 11.562499 80.371094 11.982422 -2.519531 -58.945740 -4.580078 -5.957112 6.641543 -59.443363 -12.324219 27.919924 -68.173828 -7.666016 156.612625 -7.373047 -10.751953 158.193359 7.343750 17.499998 5.631829 49.208981 35.537109 54.804688 62.509769 9.326172 5.926153 -14.931641 -7.285157 -12.042254 -3.259348 9.151523 4.841334 26.228857 -2.870254 84.888351 -30.867941 -57.494461 -39.266735 -3.427479 -8.464483 -9.172263 12.049067 5.218440 77.601181 12.304149 -103.903893 16.497259 
